# xmcd CD database file
#
# Track frame offsets:
#	150
#	26250
#	52129
#	84079
#	112879
#	148646
#	179096
#	206846
#	230647
#
# Disc length: 3291 seconds
#
# Revision: 0
# Processed by: cddbd v1.5.1PL0 Copyright (c) Steve Scherf et al.
# Submitted via: CDex 1.50
#
DISCID=790cd909
DTITLE=Jeff Berlin - Lumpy Jazz
DYEAR=2004
DGENRE=Jazz
TTITLE0=Brooklyn Uncompromised
TTITLE1=My Happy Kids
TTITLE2=Lien On Me
TTITLE3=A Mensch Among Unmentionables
TTITLE4=Almost Dawn
TTITLE5=Have You Met Mischpucha
TTITLE6=Toot's Suite
TTITLE7=Everyone Gets Old (If They Have The Time)
TTITLE8=Intermezzo In A Major Opus 118 No 2
EXTD=YEAR: 2004
EXTT0=
EXTT1=
EXTT2=
EXTT3=
EXTT4=
EXTT5=
EXTT6=
EXTT7=
EXTT8=
PLAYORDER=
